#define dir_width 20
#define dir_height 20
static unsigned char dir_bits[] = {
   0xff, 0x00, 0x00, 0xd5, 0x00, 0x00, 0xab, 0x00, 0x00, 0xd5, 0xff, 0x03,
   0xab, 0xaa, 0x06, 0x55, 0x55, 0x0d, 0xab, 0xaa, 0x0a, 0xf5, 0xff, 0x0d,
   0x1b, 0x00, 0x0b, 0x6d, 0x6e, 0x0e, 0xab, 0xa4, 0x0a, 0xad, 0x64, 0x0e,
   0xab, 0xa4, 0x0a, 0x6d, 0xae, 0x0e, 0x1b, 0x00, 0x0b, 0xf5, 0xff, 0x0d,
   0xab, 0xaa, 0x0e, 0x56, 0x55, 0x07, 0xac, 0xaa, 0x03, 0xf8, 0xff, 0x01 };
