#define py_width 20
#define py_height 20
static unsigned char py_bits[] = {
   0x00, 0x00, 0x00, 0x00, 0xff, 0x00, 0x80, 0x81, 0x00, 0x40, 0x81, 0x00,
   0x20, 0x81, 0x00, 0xf0, 0x81, 0x00, 0x10, 0x80, 0x00, 0x10, 0x80, 0x00,
   0x10, 0x80, 0x00, 0xd0, 0xa9, 0x00, 0x50, 0xaa, 0x00, 0x50, 0xaa, 0x00,
   0xd0, 0xa9, 0x00, 0x50, 0x90, 0x00, 0x50, 0x90, 0x00, 0x50, 0x90, 0x00,
   0x10, 0x80, 0x00, 0x10, 0x80, 0x00, 0xf0, 0xff, 0x00, 0x00, 0x00, 0x00 };
